HIERARCHY
ROOT Hips
{
	OFFSET 0.000000 71.427986 0.000000
	CHANNELS 6 Xposition Yposition Zposition Xrotation Yrotation Zrotation
	JOINT Pelvis
	{
		OFFSET 0.000000 0.000000 0.000000
		CHANNELS 3 Xrotation Yrotation Zrotation
		JOINT LeftUpLeg
		{
			OFFSET 6.797100 -2.508499 -1.318700
			CHANNELS 3 Xrotation Yrotation Zrotation
			JOINT LeftLeg
			{
				OFFSET 0.069008 -29.241863 0.690200
				CHANNELS 3 Xrotation Yrotation Zrotation
				JOINT LeftFoot
				{
					OFFSET -0.069008 -29.568123 -0.266800
					CHANNELS 3 Xrotation Yrotation Zrotation
					JOINT LeftToeBase
					{
						OFFSET 3.145500 -8.631000 16.059900
						CHANNELS 3 Xrotation Yrotation Zrotation
						End Site
						{
							OFFSET 0.000000 18.501587 0.000000
						}
					}
				}
			}
			JOINT Left_ShortSleeve
			{
				OFFSET 0.265923 -10.480953 1.153800
				CHANNELS 3 Xrotation Yrotation Zrotation
				End Site
				{
					OFFSET 1.725763 19.823879 0.000000
				}
			}
		}
		JOINT RightUpLeg
		{
			OFFSET -6.797100 -2.508499 -1.318700
			CHANNELS 3 Xrotation Yrotation Zrotation
			JOINT RightLeg
			{
				OFFSET -0.082453 -29.241932 0.688000
				CHANNELS 3 Xrotation Yrotation Zrotation
				JOINT RightFoot
				{
					OFFSET 0.082453 -29.568058 -0.264600
					CHANNELS 3 Xrotation Yrotation Zrotation
					JOINT RightToeBase
					{
						OFFSET -3.115300 -8.682800 16.113400
						CHANNELS 3 Xrotation Yrotation Zrotation
						End Site
						{
							OFFSET 0.000000 18.567114 0.000000
						}
					}
				}
			}
			JOINT Right_ShortSleeve
			{
				OFFSET -0.265923 -10.480953 1.153800
				CHANNELS 3 Xrotation Yrotation Zrotation
				End Site
				{
					OFFSET -1.725766 19.823910 0.000000
				}
			}
		}
	}
	JOINT Spine
	{
		OFFSET 0.000000 13.368103 0.470500
		CHANNELS 3 Xrotation Yrotation Zrotation
		JOINT Spine1
		{
			OFFSET 0.147000 13.837402 0.538800
			CHANNELS 3 Xrotation Yrotation Zrotation
			JOINT Spine2
			{
				OFFSET 0.168000 16.242897 -1.435500
				CHANNELS 3 Xrotation Yrotation Zrotation
				JOINT Neck
				{
					OFFSET 0.217200 18.631500 -1.679100
					CHANNELS 3 Xrotation Yrotation Zrotation
					JOINT Head
					{
						OFFSET 0.000000 6.599396 1.385900
						CHANNELS 3 Xrotation Yrotation Zrotation
						JOINT Hat
						{
							OFFSET -0.532200 27.220596 -10.096100
							CHANNELS 3 Xrotation Yrotation Zrotation
							End Site
							{
								OFFSET 0.000000 22.029861 0.000000
							}
						}
						JOINT HairD
						{
							OFFSET -10.777400 17.437393 -1.325900
							CHANNELS 3 Xrotation Yrotation Zrotation
							JOINT HairD1
							{
								OFFSET -3.290299 -11.051193 1.062200
								CHANNELS 3 Xrotation Yrotation Zrotation
								End Site
								{
									OFFSET 0.000000 11.579437 0.000000
								}
							}
						}
						JOINT HairB
						{
							OFFSET -10.777400 17.437393 1.467900
							CHANNELS 3 Xrotation Yrotation Zrotation
							JOINT HairB1
							{
								OFFSET -1.561200 -12.956299 3.590200
								CHANNELS 3 Xrotation Yrotation Zrotation
								End Site
								{
									OFFSET 0.000000 13.534866 0.000000
								}
							}
						}
						JOINT HairA
						{
							OFFSET 9.713100 17.437393 1.467900
							CHANNELS 3 Xrotation Yrotation Zrotation
							JOINT HairA1
							{
								OFFSET 1.561200 -12.956299 3.590200
								CHANNELS 3 Xrotation Yrotation Zrotation
								End Site
								{
									OFFSET 0.000000 13.534866 0.000000
								}
							}
						}
						JOINT HairC
						{
							OFFSET 9.713100 17.437393 -1.325900
							CHANNELS 3 Xrotation Yrotation Zrotation
							JOINT HairC1
							{
								OFFSET 3.290300 -11.051193 1.062200
								CHANNELS 3 Xrotation Yrotation Zrotation
								End Site
								{
									OFFSET 0.000000 11.579437 0.000000
								}
							}
						}
					}
				}
				JOINT LeftShoulder
				{
					OFFSET 5.101800 15.108002 -2.763700
					CHANNELS 3 Xrotation Yrotation Zrotation
					JOINT LeftArm
					{
						OFFSET 9.825497 2.506317 -1.597400
						CHANNELS 3 Xrotation Yrotation Zrotation
						JOINT LeftForeArm
						{
							OFFSET 21.966244 0.000000 0.000000
							CHANNELS 3 Xrotation Yrotation Zrotation
							JOINT LeftHand
							{
								OFFSET 33.879036 0.000000 0.000000
								CHANNELS 3 Xrotation Yrotation Zrotation
								JOINT LeftHandThumb1
								{
									OFFSET 6.715286 -2.359680 3.363841
									CHANNELS 3 Xrotation Yrotation Zrotation
									JOINT LeftHandThumb2
									{
										OFFSET 2.507072 -1.447464 1.447461
										CHANNELS 3 Xrotation Yrotation Zrotation
										JOINT LeftHandThumb3
										{
											OFFSET 2.898338 -1.673355 1.673357
											CHANNELS 3 Xrotation Yrotation Zrotation
											End Site
											{
												OFFSET -0.295959 3.727692 -0.131651
											}
										}
									}
								}
								JOINT LeftHandIndex1
								{
									OFFSET 14.190811 -0.254547 3.840278
									CHANNELS 3 Xrotation Yrotation Zrotation
									JOINT LeftHandIndex2
									{
										OFFSET 3.551727 0.000000 -0.000000
										CHANNELS 3 Xrotation Yrotation Zrotation
										JOINT LeftHandIndex3
										{
											OFFSET 2.894196 0.000000 0.000000
											CHANNELS 3 Xrotation Yrotation Zrotation
											End Site
											{
												OFFSET -1.000603 2.690872 0.366626
											}
										}
									}
								}
								JOINT LeftHandMiddle1
								{
									OFFSET 13.776489 0.000000 0.000000
									CHANNELS 3 Xrotation Yrotation Zrotation
									JOINT LeftHandMiddle2
									{
										OFFSET 3.438232 0.000000 0.000000
										CHANNELS 3 Xrotation Yrotation Zrotation
										JOINT LeftHandMiddle3
										{
											OFFSET 3.691551 0.000000 0.000000
											CHANNELS 3 Xrotation Yrotation Zrotation
											End Site
											{
												OFFSET -1.082298 3.499527 0.457670
											}
										}
									}
								}
								JOINT LeftHandRing1
								{
									OFFSET 13.966164 -0.268127 -3.067488
									CHANNELS 3 Xrotation Yrotation Zrotation
									JOINT LeftHandRing2
									{
										OFFSET 3.162567 0.000000 0.000000
										CHANNELS 3 Xrotation Yrotation Zrotation
										JOINT LeftHandRing3
										{
											OFFSET 3.324348 0.000000 0.000000
											CHANNELS 3 Xrotation Yrotation Zrotation
											End Site
											{
												OFFSET -0.861900 3.184998 0.405154
											}
										}
									}
								}
								JOINT LeftHandPinky1
								{
									OFFSET 13.131393 -0.168503 -5.746925
									CHANNELS 3 Xrotation Yrotation Zrotation
									JOINT LeftHandPinky2
									{
										OFFSET 2.849182 0.000000 0.000000
										CHANNELS 3 Xrotation Yrotation Zrotation
										JOINT LeftHandPinky3
										{
											OFFSET 2.805038 0.000000 0.000000
											CHANNELS 3 Xrotation Yrotation Zrotation
											End Site
											{
												OFFSET -0.882500 2.642609 0.325652
											}
										}
									}
								}
							}
							JOINT Left_Sleeve
							{
								OFFSET 6.592125 -0.646545 0.805568
								CHANNELS 3 Xrotation Yrotation Zrotation
								End Site
								{
									OFFSET -0.000179 20.275787 -0.000000
								}
							}
						}
					}
				}
				JOINT RightShoulder
				{
					OFFSET -5.731700 15.108002 -2.763700
					CHANNELS 3 Xrotation Yrotation Zrotation
					JOINT RightArm
					{
						OFFSET -9.825497 2.506317 -1.597400
						CHANNELS 3 Xrotation Yrotation Zrotation
						JOINT RightForeArm
						{
							OFFSET -21.966242 0.000000 0.000000
							CHANNELS 3 Xrotation Yrotation Zrotation
							JOINT RightHand
							{
								OFFSET -33.879032 0.000000 0.000000
								CHANNELS 3 Xrotation Yrotation Zrotation
								JOINT RightHandThumb1
								{
									OFFSET -6.715286 -2.359680 3.363841
									CHANNELS 3 Xrotation Yrotation Zrotation
									JOINT RightHandThumb2
									{
										OFFSET -2.507072 -1.447464 1.447461
										CHANNELS 3 Xrotation Yrotation Zrotation
										JOINT RightHandThumb3
										{
											OFFSET -2.898338 -1.673355 1.673357
											CHANNELS 3 Xrotation Yrotation Zrotation
											End Site
											{
												OFFSET 0.295959 3.727692 -0.131651
											}
										}
									}
								}
								JOINT RightHandIndex1
								{
									OFFSET -14.190811 -0.254547 3.840278
									CHANNELS 3 Xrotation Yrotation Zrotation
									JOINT RightHandIndex2
									{
										OFFSET -3.551727 0.000000 -0.000000
										CHANNELS 3 Xrotation Yrotation Zrotation
										JOINT RightHandIndex3
										{
											OFFSET -2.894196 0.000000 0.000000
											CHANNELS 3 Xrotation Yrotation Zrotation
											End Site
											{
												OFFSET 1.000603 2.690872 0.366626
											}
										}
									}
								}
								JOINT RightHandMiddle1
								{
									OFFSET -13.776489 0.000000 0.000000
									CHANNELS 3 Xrotation Yrotation Zrotation
									JOINT RightHandMiddle2
									{
										OFFSET -3.438232 0.000000 0.000000
										CHANNELS 3 Xrotation Yrotation Zrotation
										JOINT RightHandMiddle3
										{
											OFFSET -3.691551 0.000000 0.000000
											CHANNELS 3 Xrotation Yrotation Zrotation
											End Site
											{
												OFFSET 1.082298 3.499527 0.457670
											}
										}
									}
								}
								JOINT RightHandRing1
								{
									OFFSET -13.966164 -0.268127 -3.067488
									CHANNELS 3 Xrotation Yrotation Zrotation
									JOINT RightHandRing2
									{
										OFFSET -3.162567 0.000000 0.000000
										CHANNELS 3 Xrotation Yrotation Zrotation
										JOINT RightHandRing3
										{
											OFFSET -3.324348 0.000000 0.000000
											CHANNELS 3 Xrotation Yrotation Zrotation
											End Site
											{
												OFFSET 0.861900 3.184998 0.405154
											}
										}
									}
								}
								JOINT RightHandPinky1
								{
									OFFSET -13.131393 -0.168503 -5.746925
									CHANNELS 3 Xrotation Yrotation Zrotation
									JOINT RightHandPinky2
									{
										OFFSET -2.849182 0.000000 0.000000
										CHANNELS 3 Xrotation Yrotation Zrotation
										JOINT RightHandPinky3
										{
											OFFSET -2.805038 0.000000 0.000000
											CHANNELS 3 Xrotation Yrotation Zrotation
											End Site
											{
												OFFSET 0.882500 2.642609 0.325652
											}
										}
									}
								}
							}
							JOINT Right_Sleeve
							{
								OFFSET -6.592125 -0.646545 0.805568
								CHANNELS 3 Xrotation Yrotation Zrotation
								End Site
								{
									OFFSET 0.000179 20.275787 -0.000000
								}
							}
						}
					}
				}
				JOINT Bind_Right_JacketString
				{
					OFFSET -3.534800 11.969597 7.200700
					CHANNELS 3 Xrotation Yrotation Zrotation
					JOINT Bind_Right_JacketString1
					{
						OFFSET -0.319900 -6.102600 2.794100
						CHANNELS 3 Xrotation Yrotation Zrotation
						End Site
						{
							OFFSET 0.000000 6.719452 0.000000
						}
					}
				}
				JOINT Bind_Left_JacketString
				{
					OFFSET 2.904800 11.969597 7.200700
					CHANNELS 3 Xrotation Yrotation Zrotation
					JOINT Bind_Left_JacketString1
					{
						OFFSET 0.364800 -5.904503 3.186800
						CHANNELS 3 Xrotation Yrotation Zrotation
						End Site
						{
							OFFSET 0.000000 6.719513 0.000000
						}
					}
				}
				JOINT HairE
				{
					OFFSET 5.915200 17.612701 -11.592200
					CHANNELS 3 Xrotation Yrotation Zrotation
					JOINT HairE1
					{
						OFFSET 0.289200 -7.171898 -1.284500
						CHANNELS 3 Xrotation Yrotation Zrotation
						End Site
						{
							OFFSET 0.000000 7.291756 0.000000
						}
					}
				}
				JOINT HairF
				{
					OFFSET -0.864800 17.612701 -11.592200
					CHANNELS 3 Xrotation Yrotation Zrotation
					JOINT HairF1
					{
						OFFSET 0.000000 -14.087097 -2.127501
						CHANNELS 3 Xrotation Yrotation Zrotation
						End Site
						{
							OFFSET 0.000000 14.246841 0.000000
						}
					}
				}
				JOINT HairG
				{
					OFFSET -8.087700 17.612701 -11.592200
					CHANNELS 3 Xrotation Yrotation Zrotation
					JOINT HairG1
					{
						OFFSET -0.293600 -6.081398 -0.910100
						CHANNELS 3 Xrotation Yrotation Zrotation
						End Site
						{
							OFFSET 0.000000 6.156120 0.000000
						}
					}
				}
			}
		}
	}
	JOINT Pouch
	{
		OFFSET 0.000000 4.394501 10.847300
		CHANNELS 3 Xrotation Yrotation Zrotation
		End Site
		{
			OFFSET 0.000000 21.880577 0.000000
		}
	}
	JOINT Bag
	{
		OFFSET -13.229000 4.813004 -0.593300
		CHANNELS 3 Xrotation Yrotation Zrotation
		End Site
		{
			OFFSET 0.000000 21.880577 0.000000
		}
	}
	JOINT OccupyGuyFacialAnim_Joint
	{
		OFFSET 1.000000 -70.206398 -1.655000
		CHANNELS 3 Xrotation Yrotation Zrotation
		End Site
		{
			OFFSET 0.000000 21.880577 0.000000
		}
	}
}
MOTION
Frames: 4
Frame Time: 0.033333
2.417137 69.563492 -5.182505 -4.368187 -16.748662 -11.791074 -0.000001 0.000000 -0.000002 -33.232149 31.528331 29.734303 32.767255 -6.883688 3.404583 -7.955335 -0.621203 -1.139121 0.000000 -0.000000 0.000000 -0.000002 -0.000001 -0.000001 -10.394249 -9.288084 9.776845 21.214397 1.739856 -4.058918 -2.173952 -1.540859 2.606390 -0.000000 0.000003 -0.000000 0.000001 -0.000001 -0.000001 13.683803 -0.747842 -3.702938 -0.218829 0.234934 -2.404158 -0.237827 0.310248 -2.416268 8.712356 2.750989 14.641979 -12.887711 12.767397 2.101680 0.000000 -0.000001 0.000000 0.000000 -0.000001 0.000000 0.000000 -0.000001 0.000000 0.000000 -0.000001 0.000000 0.000001 -0.000001 0.000000 0.000000 -0.000001 0.000000 0.000001 -0.000001 0.000000 0.000000 -0.000001 0.000000 0.000000 -0.000001 0.000000 0.354509 -21.788095 -13.238615 -2.738567 -12.806184 -24.428679 -29.328016 -47.360221 -21.407012 7.293307 -8.141280 -7.519727 6.334830 -1.208177 -18.026623 17.675901 12.746163 7.871478 -0.000002 -0.000004 0.000001 -6.292107 -8.018554 -94.149568 0.001660 -4.388395 -75.971415 0.000002 0.000000 -0.000002 -6.242286 4.269007 -99.292994 -0.077144 -4.900584 -86.590044 0.000002 0.000000 0.000001 -4.002621 5.571324 -102.745436 -1.168178 -0.562638 -68.543346 -0.000002 0.000002 -0.000001 -8.558434 11.414577 -96.273668 -0.050604 -0.071137 -83.744444 -0.000002 -0.000004 0.000002 -0.000003 0.000002 0.000001 -0.220887 38.132027 1.601490 116.676556 61.652142 -76.851431 35.355183 55.250616 -53.835551 7.296132 -22.477639 42.476369 24.918330 -21.323372 30.343054 9.041919 8.262095 -18.001802 0.000000 -0.000001 0.000001 -0.070698 -3.035214 61.424199 -0.002341 4.584472 66.620306 -0.000001 0.000001 0.000000 -1.235415 -0.119471 68.274270 -0.077283 4.902836 84.501885 0.000002 0.000001 0.000003 0.883158 -4.613431 79.192936 -0.717771 1.136479 73.255780 0.000001 0.000001 0.000005 -3.944561 0.099992 86.764788 -0.029794 0.060125 54.415147 0.000000 0.000001 -0.000001 0.000000 0.000001 -0.000003 -0.000000 0.000001 0.000001 -0.000000 0.000001 0.000003 -0.000000 0.000001 -0.000001 -0.000000 0.000001 -0.000001 -0.000000 0.000001 0.000001 -0.000000 0.000001 0.000003 -0.000000 0.000001 -0.000001 -0.000000 0.000001 -0.000001 -0.000000 0.000001 0.000001 -0.000000 0.000001 0.000003 -0.000001 0.000000 -0.000002 -0.000001 0.000000 -0.000002 -0.000001 0.000000 -0.000002 
2.474971 69.717224 -4.990660 -4.666129 -16.437656 -11.986435 -0.000000 0.000001 0.000001 -32.224860 31.415056 29.289432 32.105396 -6.704754 3.479257 -7.851092 -0.642996 -1.249914 -0.000000 0.000001 -0.000000 -0.000001 0.000001 -0.000000 -9.183742 -9.351670 9.812445 19.911639 1.758272 -4.050592 -1.677554 -1.498085 2.790613 -0.000000 0.000000 0.000000 -0.000002 -0.000001 -0.000000 13.654820 -0.964388 -3.667799 -0.186107 0.175384 -2.416228 -0.201871 0.250826 -2.428736 8.613933 2.783778 14.712537 -12.157983 12.743365 2.504128 -0.000000 -0.000000 -0.000000 -0.000000 -0.000000 -0.000000 -0.000000 -0.000000 0.000000 -0.000000 -0.000000 -0.000000 -0.000000 -0.000000 -0.000000 -0.000000 -0.000000 -0.000000 -0.000000 -0.000000 -0.000000 -0.000000 -0.000000 -0.000000 -0.000000 -0.000000 -0.000000 0.310848 -22.684928 -13.594880 -3.111041 -13.988861 -23.646706 -25.920617 -45.342802 -19.487718 7.404902 -7.920538 -7.150872 6.385401 -1.220362 -18.141802 17.738326 12.747498 7.840293 -0.000002 0.000001 0.000001 -6.379863 -8.005427 -94.564420 0.001527 -4.388375 -76.245764 0.000002 0.000000 -0.000002 -6.253115 4.334065 -99.701234 -0.077417 -4.900680 -86.911780 -0.000000 0.000002 -0.000001 -3.975299 5.621253 -103.144005 -1.170025 -0.558744 -68.744201 -0.000003 0.000001 0.000002 -8.528804 11.514160 -96.616352 -0.050707 -0.071287 -84.055054 -0.000003 0.000000 -0.000002 -0.000003 0.000000 -0.000000 0.364332 37.361159 0.667601 112.548991 61.267166 -73.871344 38.913613 55.135944 -57.501375 6.532147 -21.144519 42.412982 24.918330 -21.323374 30.343057 9.041918 8.262097 -18.001800 0.000001 0.000001 0.000000 -0.070695 -3.035213 61.424199 -0.002517 4.588055 66.619288 -0.000002 -0.000001 -0.000002 -1.235417 -0.119472 68.274270 -0.077284 4.902839 84.501878 0.000001 0.000001 0.000005 0.883159 -4.613431 79.192936 -0.717773 1.136479 73.255780 0.000002 -0.000002 -0.000006 -3.944561 0.099990 86.764795 -0.029789 0.060123 54.415144 -0.000000 0.000001 0.000001 0.000000 0.000002 -0.000005 -0.000000 -0.000001 0.000000 -0.000000 0.000000 0.000001 -0.000000 -0.000001 -0.000002 -0.000000 -0.000001 -0.000002 -0.000000 -0.000001 0.000000 -0.000000 0.000000 0.000001 -0.000000 -0.000001 -0.000002 -0.000000 -0.000001 -0.000002 -0.000000 -0.000001 0.000000 -0.000000 0.000000 0.000001 -0.000000 0.000001 0.000001 -0.000000 0.000001 0.000001 -0.000000 0.000001 0.000001 
2.444880 69.849205 -4.838512 -4.933769 -16.330412 -12.070997 0.000000 -0.000001 -0.000000 -31.189386 31.271328 28.825038 31.410735 -6.317829 3.534315 -7.696121 -0.644855 -1.491128 -0.000000 0.000002 -0.000000 -0.000001 -0.000001 -0.000001 -8.196247 -9.400412 9.835329 18.888487 1.910120 -4.054885 -1.291587 -1.464788 2.856931 -0.000000 0.000001 -0.000000 0.000001 -0.000001 -0.000000 13.603491 -1.166146 -3.647807 -0.153157 0.120559 -2.417661 -0.166189 0.195969 -2.430363 8.733561 2.846675 14.454349 -11.510534 12.716097 3.017483 0.000000 -0.000000 -0.000000 0.000000 -0.000000 -0.000000 0.000000 -0.000000 0.000000 0.000000 -0.000000 -0.000000 0.000000 -0.000000 0.000000 0.000000 -0.000000 -0.000000 0.000000 -0.000000 0.000000 0.000000 -0.000000 -0.000000 0.000000 -0.000000 -0.000000 0.250015 -23.497797 -13.909792 -3.485770 -15.053469 -22.907174 -22.568654 -43.546875 -17.630060 7.502299 -7.723245 -6.918939 6.433192 -1.231994 -18.250663 17.797345 12.748711 7.810810 -0.000001 -0.000001 0.000003 -6.462787 -7.991888 -94.956514 0.001429 -4.388333 -76.505085 0.000001 0.000001 0.000002 -6.262529 4.395783 -100.087229 -0.077721 -4.900753 -87.215929 0.000003 0.000001 0.000001 -3.948826 5.668123 -103.520854 -1.171786 -0.555052 -68.934033 -0.000003 0.000002 -0.000001 -8.499665 11.608066 -96.940533 -0.050808 -0.071434 -84.348670 0.000002 -0.000003 -0.000001 0.000004 0.000000 -0.000001 0.691705 37.112567 -0.139807 110.792273 59.993909 -73.271729 39.254395 56.358797 -58.267319 6.597746 -20.833668 41.434246 24.918333 -21.323372 30.343054 9.041915 8.262095 -18.001802 0.000001 -0.000001 0.000000 -0.070694 -3.035214 61.424199 -0.002481 4.587338 66.618168 -0.000001 -0.000001 -0.000003 -1.235415 -0.119471 68.274264 -0.077285 4.902836 84.501885 0.000001 0.000002 -0.000002 0.883158 -4.613430 79.192936 -0.717776 1.136479 73.255780 -0.000001 -0.000003 -0.000001 -3.944557 0.099991 86.764781 -0.029792 0.060122 54.415144 -0.000000 -0.000001 -0.000001 0.000002 0.000001 -0.000003 -0.000000 -0.000001 0.000001 -0.000001 -0.000001 0.000001 -0.000000 -0.000001 -0.000001 -0.000000 -0.000001 -0.000001 -0.000000 -0.000001 0.000001 -0.000001 -0.000001 0.000002 -0.000000 -0.000001 -0.000001 -0.000000 -0.000001 -0.000001 -0.000000 -0.000001 0.000001 -0.000001 -0.000001 0.000002 0.000000 -0.000001 -0.000000 0.000000 -0.000001 -0.000000 0.000000 -0.000001 -0.000000 
2.266181 69.941124 -4.757911 -5.150178 -16.563523 -11.994283 0.000000 -0.000001 -0.000001 -30.169632 31.085321 28.379154 30.709760 -5.616891 3.553781 -7.470160 -0.618266 -1.932550 -0.000000 -0.000001 0.000000 -0.000000 0.000003 0.000001 -7.662167 -9.388016 9.851445 18.467747 2.224393 -4.089530 -1.150279 -1.446413 2.737713 -0.000000 0.000000 -0.000000 -0.000001 0.000001 -0.000000 13.520234 -1.370790 -3.641211 -0.119615 0.065442 -2.402147 -0.130513 0.140571 -2.414673 9.215601 2.970235 13.692026 -10.999845 12.739737 3.697298 0.000000 -0.000000 -0.000000 0.000000 -0.000000 -0.000000 0.000000 -0.000000 -0.000000 0.000000 -0.000000 -0.000000 -0.000001 -0.000000 -0.000000 0.000000 -0.000000 -0.000000 -0.000001 -0.000000 -0.000000 0.000000 -0.000000 -0.000000 0.000000 -0.000000 -0.000000 0.165537 -24.164958 -14.145213 -3.899290 -15.731515 -22.201619 -19.158583 -42.453966 -15.662001 7.603338 -7.391949 -6.911220 6.477068 -1.242733 -18.350572 17.851519 12.749760 7.783725 0.000002 0.000001 -0.000001 -6.538843 -7.978494 -95.316376 0.001321 -4.388304 -76.743070 0.000001 0.000000 0.000002 -6.270467 4.452611 -100.441586 -0.077954 -4.900838 -87.495133 0.000001 0.000001 -0.000003 -3.923951 5.710915 -103.866837 -1.173353 -0.551667 -69.108305 -0.000004 0.000000 0.000002 -8.471970 11.694058 -97.238323 -0.050879 -0.071548 -84.618175 0.000002 0.000000 -0.000004 -0.000000 -0.000002 -0.000003 1.110960 37.676587 -1.286557 109.504482 57.710447 -73.396885 37.699817 58.711357 -58.144219 6.850871 -21.668546 39.452375 24.918337 -21.323369 30.343051 9.041917 8.262096 -18.001804 -0.000000 0.000000 -0.000000 -0.070693 -3.035214 61.424205 -0.002185 4.580482 66.616932 -0.000000 0.000000 0.000004 -1.235416 -0.119472 68.274264 -0.077282 4.902836 84.501885 -0.000000 -0.000001 -0.000001 0.883160 -4.613430 79.192936 -0.717773 1.136478 73.255773 0.000000 0.000000 -0.000002 -3.944561 0.099990 86.764788 -0.029794 0.060125 54.415140 -0.000002 -0.000001 -0.000003 -0.000002 0.000000 0.000001 0.000001 -0.000000 0.000001 -0.000000 -0.000000 -0.000001 0.000001 -0.000000 -0.000000 0.000001 -0.000000 -0.000000 0.000001 -0.000000 0.000001 -0.000000 -0.000000 -0.000000 0.000001 -0.000000 -0.000000 0.000001 -0.000000 -0.000000 0.000001 -0.000000 0.000001 -0.000000 -0.000000 -0.000000 0.000000 -0.000001 -0.000001 0.000000 -0.000001 -0.000001 0.000000 -0.000001 -0.000001 
